<svg xmlns="http://www.w3.org/2000/svg" version="1.1" xmlns:xlink="http://www.w3.org/1999/xlink" width="512" height="512" x="0" y="0" viewBox="0 0 24 24" style="enable-background:new 0 0 512 512" xml:space="preserve" class=""><g><path d="M12.2 17.7c-.3 0-.5-.1-.7-.3l-4.2-4.2c-.4-.4-.4-1 0-1.4s1-.4 1.4 0l3.5 3.5L20 7.5c.4-.4 1-.4 1.4 0s.4 1 0 1.4l-8.5 8.5c-.1.2-.4.3-.7.3z" fill="#a60f23" opacity="1" data-original="#000000" class=""></path><path d="M7.2 17.7c-.3 0-.5-.1-.7-.3l-4.2-4.2c-.4-.4-.4-1 0-1.4s1-.4 1.4 0L7.9 16c.4.4.4 1 0 1.4-.1.2-.4.3-.7.3zm5.3-5.2c-.3 0-.5-.1-.7-.3-.4-.4-.4-1 0-1.4L15 7.5c.4-.4 1-.4 1.4 0s.4 1 0 1.4l-3.2 3.3c-.2.2-.4.3-.7.3z" fill="#a60f23" opacity="1" data-original="#000000" class=""></path></g></svg>