<svg width="15" height="15" viewBox="0 0 15 15" fill="none" xmlns="http://www.w3.org/2000/svg">
<path d="M14.8792 6.11149C14.9458 6.11149 14.9999 6.16554 14.9999 6.23222V7.49977C14.9999 7.97419 14.9558 8.43806 14.8713 8.88804C14.2175 12.3833 11.1382 15.0248 7.44724 14.9993C3.3057 14.9708 -0.00878444 11.6245 0.000385191 7.48286C0.00949623 3.3487 3.36382 0 7.50012 0C9.52661 0 11.3653 0.80394 12.7152 2.10984C12.764 2.15697 12.7652 2.23467 12.7173 2.2826L10.924 4.07583C10.8779 4.122 10.8033 4.1232 10.756 4.07817C9.90869 3.27169 8.76234 2.77655 7.50012 2.77655C4.89363 2.77655 2.79472 4.86055 2.77703 7.46698C2.75924 10.0905 4.88074 12.2229 7.50012 12.2229C9.6254 12.2229 11.4229 10.819 12.0157 8.88804H7.62085C7.55417 8.88804 7.50012 8.83399 7.50012 8.76731V6.23219C7.50012 6.16551 7.55417 6.11146 7.62085 6.11146H14.8792V6.11149Z" fill="#2196F3"/>
<path d="M14.8789 6.11151H13.9735C14.0402 6.11151 14.0942 6.16556 14.0942 6.23224V7.49979C14.0942 7.97421 14.0502 8.43808 13.9657 8.88807C13.3419 12.2226 10.5106 14.78 7.04669 14.986C7.17923 14.9938 7.31264 14.9984 7.44699 14.9994C11.138 15.0248 14.2173 12.3833 14.8711 8.88807C14.9556 8.43808 14.9996 7.97421 14.9996 7.49979V6.23221C14.9996 6.16556 14.9456 6.11151 14.8789 6.11151Z" fill="#1E88E5"/>
<path d="M3.20971 5.52176L0.932007 3.87603C2.20984 1.56484 4.67222 0 7.49981 0C9.5263 0 11.365 0.80394 12.7149 2.10984C12.7637 2.15697 12.7649 2.23467 12.717 2.2826L10.9237 4.07583C10.8776 4.12191 10.803 4.12335 10.7559 4.07841C9.90858 3.27177 8.76215 2.77658 7.49981 2.77658C5.59757 2.77658 3.95787 3.90108 3.20971 5.52176Z" fill="#F44336"/>
<path d="M2.55231 5.0467L3.20986 5.52179C3.89274 4.04252 5.31852 2.97714 7.00861 2.80239C7.02132 2.80101 7.03354 2.79935 7.04649 2.79811C6.89775 2.78399 6.74702 2.77661 6.59457 2.77661C4.87615 2.77661 3.37854 3.68253 2.55231 5.0467Z" fill="#E53935"/>
<path d="M11.8093 2.10984C11.8581 2.15697 11.8594 2.23467 11.8114 2.28262L10.3559 3.73814C10.4953 3.84419 10.6288 3.95762 10.7555 4.0782C10.8028 4.12323 10.8774 4.12203 10.9236 4.07586L12.7168 2.28262C12.7647 2.23467 12.7635 2.157 12.7147 2.10984C11.3648 0.80394 9.52613 0 7.49964 0C7.34757 0 7.19669 0.0050682 7.04688 0.0140035C8.89369 0.12401 10.5607 0.901905 11.8093 2.10984Z" fill="#E53935"/>
<path d="M13.0012 12.5966C11.6316 14.0745 9.67352 14.9995 7.49964 14.9995C4.56343 14.9995 2.02136 13.3122 0.790283 10.854L3.11565 9.26044C3.81345 10.9967 5.5135 12.2229 7.49964 12.2229C8.74607 12.2229 9.87965 11.74 10.7235 10.9511L13.0012 12.5966Z" fill="#4CAF50"/>
<path d="M3.11579 9.2605L2.43008 9.73038C3.22649 11.214 4.79263 12.223 6.59436 12.223C6.74673 12.223 6.89734 12.2155 7.04601 12.2014C5.25752 12.0309 3.75977 10.863 3.11579 9.2605Z" fill="#43A047"/>
<path d="M7.49963 14.9996C9.67351 14.9996 11.6316 14.0746 13.0012 12.5966L12.4433 12.1936C11.1573 13.794 9.22818 14.8558 7.04807 14.9859C7.19747 14.9948 7.348 14.9996 7.49963 14.9996Z" fill="#43A047"/>
<path d="M2.77658 7.49977C2.77658 8.12208 2.89699 8.71634 3.1158 9.26049L0.790405 10.854C0.28461 9.84477 0 8.70548 0 7.49977C0 6.18544 0.338017 4.95014 0.931963 3.87604L3.20967 5.52177C2.93171 6.12324 2.77658 6.79356 2.77658 7.49977Z" fill="#FFC107"/>
<path d="M2.43015 9.73032L3.11585 9.26045C2.89704 8.7163 2.77663 8.12203 2.77663 7.49973C2.77663 6.79352 2.93175 6.1232 3.20971 5.52172L2.55217 5.04663C2.12518 5.75164 1.87736 6.57893 1.87133 7.46698C1.86576 8.28592 2.06869 9.05701 2.43015 9.73032Z" fill="#FFB300"/>
</svg>
